<?xml version="1.0" encoding="utf-8"?>
<!-- Generator: Adobe Illustrator 27.0.0, SVG Export Plug-In . SVG Version: 6.00 Build 0)  -->
<svg version="1.1" xmlns="http://www.w3.org/2000/svg" xmlns:xlink="http://www.w3.org/1999/xlink" x="0px" y="0px"
	 viewBox="0 0 500 500" style="enable-background:new 0 0 500 500;" xml:space="preserve">
<style type="text/css">
	.st0{clip-path:url(#SVGID_00000042728900558004826940000002065526304256522130_);fill:#C3C3C3;}
	.st1{fill:#FFFFFF;stroke:#000000;stroke-miterlimit:10;}
</style>
<g id="BACKGROUND">
</g>
<g id="OBJECTS">
	<g>
		<g>
			<defs>
				<rect id="SVGID_1_" x="53.98" y="53.2" width="392.04" height="393.61"/>
			</defs>
			<clipPath id="SVGID_00000147220219172739977630000015948413823170902198_">
				<use xlink:href="#SVGID_1_"  style="overflow:visible;"/>
			</clipPath>
			<path style="clip-path:url(#SVGID_00000147220219172739977630000015948413823170902198_);fill:#C3C3C3;" d="M250.19,52.81
				c-108.36,0-196.21,87.85-196.21,196.21c0,108.36,87.85,196.21,196.21,196.21c108.36,0,196.21-87.86,196.21-196.21
				C446.4,140.66,358.55,52.81,250.19,52.81L250.19,52.81z M250.2,121.73l116.11,72.4H134.08L250.2,121.73z M367.75,309.75h-0.01
				c0,11.62-9.41,21.03-21.03,21.03H153.67c-11.61,0-21.03-9.41-21.03-21.03V198.74c0-1.23,0.13-2.42,0.33-3.6l110.94,69.18
				c0.13,0.08,0.28,0.14,0.42,0.22c0.15,0.08,0.3,0.16,0.45,0.24c0.78,0.4,1.59,0.73,2.41,0.94c0.09,0.03,0.17,0.04,0.26,0.06
				c0.91,0.21,1.83,0.34,2.74,0.34h0.02c0.91,0,1.83-0.13,2.74-0.34c0.08-0.02,0.17-0.03,0.26-0.06c0.82-0.21,1.63-0.54,2.41-0.94
				c0.15-0.08,0.3-0.15,0.45-0.24c0.13-0.08,0.28-0.13,0.42-0.22l110.94-69.18c0.2,1.18,0.33,2.36,0.33,3.6V309.75z M367.75,309.75"
				/>
		</g>
	</g>
	<path class="st1" d="M339.16,381.73"/>
	<path class="st1" d="M284.8,310.1"/>
</g>
<g id="DESIGNED_BY_FREEPIK">
</g>
</svg>
