<?xml version="1.0" encoding="utf-8"?>
<!-- Generator: Adobe Illustrator 27.0.0, SVG Export Plug-In . SVG Version: 6.00 Build 0)  -->
<svg version="1.1" xmlns="http://www.w3.org/2000/svg" xmlns:xlink="http://www.w3.org/1999/xlink" x="0px" y="0px"
	 viewBox="0 0 500 500" style="enable-background:new 0 0 500 500;" xml:space="preserve">
<style type="text/css">
	.st0{fill:#FFFFFF;stroke:#000000;stroke-miterlimit:10;}
	.st1{clip-path:url(#SVGID_00000109017293151183116410000009196478914745983917_);fill:#C3C3C3;}
	.st2{fill:#C3C3C3;}
</style>
<g id="BACKGROUND">
</g>
<g id="OBJECTS">
	<path class="st0" d="M339.16,381.73"/>
	<g>
		<g>
			<defs>
				<rect id="SVGID_1_" x="41.29" y="35.92" width="422.35" height="424.04"/>
			</defs>
			<clipPath id="SVGID_00000023259885448624764220000004017010504475386553_">
				<use xlink:href="#SVGID_1_"  style="overflow:visible;"/>
			</clipPath>
			<path style="clip-path:url(#SVGID_00000023259885448624764220000004017010504475386553_);fill:#C3C3C3;" d="M252.66,35.51
				c-116.73,0-211.37,94.64-211.37,211.38c0,116.74,94.64,211.38,211.37,211.38c116.74,0,211.39-94.65,211.39-211.38
				C464.05,130.15,369.4,35.51,252.66,35.51L252.66,35.51z M338.56,341.49v14.62c0,8.07-6.54,14.62-14.62,14.62H177.74
				c-16.15,0-29.25-13.09-29.25-29.24V157.53c0-16.15,13.1-29.24,29.25-29.24h146.19c8.07,0,14.62,6.55,14.62,14.62V341.49z
				 M367.79,157.53v198.58c0,8.07-6.54,14.62-14.61,14.62h-3.96c2.5-4.31,3.96-9.3,3.96-14.62v-213.2c0-5.32-1.46-10.31-3.96-14.61
				h3.96c8.07,0,14.61,6.54,14.61,14.61V157.53z M367.79,157.53"/>
		</g>
		<path class="st2" d="M288.73,268.76c0,0-5.51-6.61-11.61-2.05c-4.55,3.4-12.72,10.96-14.68,12.79c0,0-13.66-7.28-21.74-13.93
			c-11.97-9.85-19.98-22-24.17-28.91l-3.14-5.91c1.09-1.18,9.45-10.13,13.07-14.99c4.56-6.1-2.04-11.6-2.04-11.6
			s-18.58-18.58-22.81-22.27c-4.23-3.69-9.1-1.64-9.1-1.64c-8.9,5.75-18.12,10.75-18.67,34.79c-0.02,22.51,17.06,45.71,35.53,63.68
			c18.5,20.29,43.91,40.63,68.47,40.6c24.03-0.54,29.02-9.76,34.78-18.66c0,0,2.06-4.87-1.64-9.1
			C307.31,287.32,288.73,268.76,288.73,268.76L288.73,268.76z M288.73,268.76"/>
	</g>
</g>
<g id="DESIGNED_BY_FREEPIK">
</g>
</svg>
