<?xml version="1.0" encoding="utf-8"?>
<!-- Svg Vector Icons : http://www.onlinewebfonts.com/icon -->
<!DOCTYPE svg PUBLIC "-//W3C//DTD SVG 1.1//EN" "http://www.w3.org/Graphics/SVG/1.1/DTD/svg11.dtd">
<svg version="1.1" xmlns="http://www.w3.org/2000/svg" xmlns:xlink="http://www.w3.org/1999/xlink" x="0px" y="0px" viewBox="0 0 1000 1000" enable-background="new 0 0 1000 1000" xml:space="preserve">
<metadata> Svg Vector Icons : http://www.onlinewebfonts.com/icon </metadata>
<g><path d="M500,710.3c217,0,392.8,49.8,392.8,111.3c0,61.4-176,111.3-392.8,111.3c-217,0-392.8-49.8-392.8-111.3C107.2,760.2,283,710.3,500,710.3c-270.7,0-490,62.1-490,138.8c0,76.7,219.3,138.8,490,138.8c270.7,0,490-62.1,490-138.8C990,772.4,770.7,710.3,500,710.3L500,710.3z"/><path d="M747,261.3c0-137.6-120.2-249.2-249.2-249.2c-129.1,0-249.2,111.5-249.2,249.2c0,26.3-6.8,54,31.2,149.5c20.7,52.1,218,398.6,218,398.6s196.7-345,218-398.6C753.8,315.3,747,287.6,747,261.3L747,261.3z M498.3,374.2c-59,0-107.1-48.6-107.1-108.6s48-108.6,107.1-108.6s107.1,48.6,107.1,108.6S557.3,374.2,498.3,374.2L498.3,374.2z"/></g>
</svg>