<?xml version="1.0" encoding="utf-8"?>
<!-- Generator: Adobe Illustrator 27.0.0, SVG Export Plug-In . SVG Version: 6.00 Build 0)  -->
<svg version="1.1" xmlns="http://www.w3.org/2000/svg" xmlns:xlink="http://www.w3.org/1999/xlink" x="0px" y="0px"
	 viewBox="0 0 500 500" style="enable-background:new 0 0 500 500;" xml:space="preserve">
<style type="text/css">
	.st0{fill:#C3C3C3;}
</style>
<g id="BACKGROUND">
</g>
<g id="OBJECTS">
	<g>
		<path class="st0" d="M249.99,38.93c-116.56,0-211.06,94.51-211.06,211.06c0,116.56,94.5,211.08,211.06,211.08
			c116.56,0,211.08-94.51,211.08-211.08C461.07,133.43,366.56,38.93,249.99,38.93L249.99,38.93z M148.8,350.74l49.98-80.52
			c4.2,5.54,8.9,11.01,14.22,16.33c5.26,5.26,10.73,10.01,16.3,14.24L148.8,350.74z M346.58,219.15
			c-5.31,5.32-14.32,5.84-24.34,2.43l-26.77,26.76c13.46,21.86,16.66,43.15,6.16,53.67c-4.25,4.25-10.27,6.26-17.38,6.26
			c-13.08,0-29.86-6.84-46.1-19.11c-0.36-0.27-0.72-0.56-1.08-0.84c-1.15-0.89-2.31-1.81-3.46-2.75c-0.45-0.38-0.91-0.76-1.36-1.14
			c-1.1-0.93-2.18-1.88-3.27-2.86c-0.43-0.38-0.85-0.75-1.28-1.15c-1.48-1.35-2.94-2.75-4.38-4.19c-1.65-1.65-3.23-3.32-4.76-5.01
			c-0.95-1.04-1.84-2.09-2.74-3.15c-0.49-0.58-1-1.15-1.49-1.73c-1.17-1.41-2.28-2.82-3.37-4.25c-0.14-0.18-0.27-0.35-0.41-0.53
			c-19.04-25.12-25.13-51.54-13.02-63.64c4.25-4.25,10.27-6.27,17.38-6.27c10.46,0,23.28,4.38,36.31,12.4l26.75-26.75
			c-3.41-10.02-2.89-19.03,2.44-24.35c9.97-9.97,32.87-3.24,51.14,15.04C349.83,186.27,356.56,209.17,346.58,219.15L346.58,219.15z
			 M346.58,219.15"/>
	</g>
</g>
<g id="DESIGNED_BY_FREEPIK">
</g>
</svg>
